<svg width="173" height="40" viewBox="0 0 173 40" fill="none" xmlns="http://www.w3.org/2000/svg">
<g clip-path="url(#clip0_830_2273)">
<path d="M121.652 13.093H125.616V17.5375C125.075 17.9879 124.445 18.3483 123.754 18.6185C123.063 18.8888 122.222 19.0089 121.321 19.0089C120.481 19.0089 119.73 18.8888 119.069 18.6185C118.409 18.3483 117.838 17.9879 117.387 17.5074C116.937 17.0269 116.577 16.4564 116.336 15.7957C116.096 15.1351 115.976 14.4143 115.976 13.6336C115.976 12.8528 116.096 12.1621 116.366 11.5014C116.637 10.8408 116.997 10.2702 117.448 9.78971C117.928 9.30923 118.469 8.91884 119.129 8.64857C119.79 8.3783 120.511 8.22815 121.291 8.22815C122.222 8.22815 123.033 8.40833 123.754 8.73866C124.445 9.06899 125.045 9.54947 125.496 10.1801L123.934 11.6816C123.604 11.2912 123.243 10.9609 122.853 10.7206C122.463 10.4804 121.982 10.3603 121.381 10.3603C120.901 10.3603 120.481 10.4504 120.12 10.6306C119.76 10.8107 119.43 11.051 119.189 11.3513C118.919 11.6516 118.739 12.0119 118.589 12.4023C118.469 12.7927 118.378 13.2432 118.378 13.6936C118.378 14.1741 118.469 14.6245 118.619 15.045C118.769 15.4354 118.979 15.7957 119.279 16.066C119.55 16.3363 119.88 16.5765 120.27 16.7266C120.661 16.8768 121.051 16.9669 121.502 16.9669C121.922 16.9669 122.282 16.9068 122.643 16.8167C122.973 16.7266 123.273 16.5765 123.544 16.3363V15.045H121.712V13.093H121.652Z" fill="white"/>
<path d="M127.268 8.46838H129.49V18.7687H127.268V8.46838Z" fill="white"/>
<path d="M130.631 15.1351C130.631 14.5946 130.721 14.0841 130.931 13.6336C131.111 13.1531 131.382 12.7627 131.712 12.4024C132.042 12.042 132.463 11.7717 132.943 11.5916C133.424 11.3813 133.934 11.2913 134.535 11.2913C135.105 11.2913 135.646 11.3813 136.096 11.5916C136.577 11.8018 136.967 12.072 137.328 12.4024C137.658 12.7627 137.928 13.1531 138.108 13.6336C138.289 14.1141 138.409 14.5946 138.409 15.1351C138.409 15.6756 138.319 16.1862 138.108 16.6366C137.928 17.1171 137.658 17.5075 137.328 17.8678C136.997 18.2282 136.577 18.4985 136.096 18.7087C135.616 18.9189 135.105 19.009 134.535 19.009C133.964 19.009 133.424 18.9189 132.943 18.7087C132.463 18.4985 132.042 18.2282 131.712 17.8678C131.382 17.5075 131.111 17.1171 130.931 16.6366C130.721 16.1561 130.631 15.6756 130.631 15.1351ZM134.505 17.0871C134.775 17.0871 135.015 17.027 135.255 16.9369C135.466 16.8168 135.646 16.6967 135.796 16.4865C135.946 16.3063 136.066 16.0961 136.126 15.8558C136.186 15.6156 136.246 15.3753 136.246 15.1351C136.246 14.8949 136.216 14.6546 136.126 14.4144C136.066 14.1741 135.946 13.9639 135.796 13.7838C135.646 13.6036 135.466 13.4534 135.255 13.3633C135.045 13.2432 134.805 13.2132 134.505 13.2132C134.234 13.2132 133.964 13.2732 133.754 13.3633C133.544 13.4835 133.364 13.6036 133.213 13.7838C133.063 13.9639 132.973 14.1741 132.883 14.4144C132.793 14.6546 132.763 14.8949 132.763 15.1351C132.763 15.3753 132.793 15.6156 132.883 15.8558C132.973 16.0961 133.063 16.3063 133.213 16.4865C133.364 16.6666 133.544 16.8168 133.754 16.9369C133.994 17.027 134.234 17.0871 134.505 17.0871Z" fill="white"/>
<path d="M139.52 8.46838H141.742V12.072C141.952 11.8618 142.222 11.6816 142.583 11.5615C142.943 11.4414 143.303 11.3813 143.634 11.3813C144.144 11.3813 144.595 11.4714 145.015 11.6816C145.405 11.8918 145.766 12.132 146.036 12.4624C146.306 12.7927 146.517 13.1831 146.667 13.6335C146.817 14.084 146.877 14.5345 146.877 15.0149C146.877 15.6155 146.787 16.1561 146.577 16.6366C146.366 17.117 146.126 17.5375 145.766 17.8978C145.405 18.2582 144.955 18.5284 144.444 18.7086C143.934 18.8888 143.333 19.0089 142.643 19.0089C142.012 19.0089 141.441 18.9489 140.901 18.8287C140.36 18.7086 139.91 18.5885 139.55 18.4684V8.46838H139.52ZM141.742 16.9969C141.862 17.057 142.012 17.087 142.162 17.117C142.312 17.1471 142.523 17.1471 142.793 17.1471C143.393 17.1471 143.844 16.9669 144.144 16.5765C144.474 16.1861 144.625 15.7056 144.625 15.075C144.625 14.8348 144.595 14.6245 144.535 14.4143C144.474 14.2041 144.384 13.9939 144.294 13.8438C144.174 13.6636 144.024 13.5435 143.844 13.4233C143.664 13.3032 143.453 13.2732 143.183 13.2732C142.703 13.2732 142.312 13.4233 142.102 13.6936C141.862 13.9639 141.742 14.3242 141.742 14.7747V16.9969Z" fill="white"/>
<path d="M152.162 18.078C151.922 18.3783 151.592 18.5886 151.231 18.7387C150.841 18.8889 150.451 18.9789 149.97 18.9789C149.7 18.9789 149.429 18.9489 149.159 18.8588C148.889 18.7988 148.619 18.6786 148.378 18.4985C148.138 18.3183 147.928 18.1081 147.778 17.8078C147.628 17.5075 147.538 17.1471 147.538 16.7267C147.538 16.3063 147.628 15.9159 147.778 15.5856C147.958 15.2552 148.168 14.985 148.469 14.7747C148.769 14.5645 149.129 14.3844 149.52 14.2642C149.94 14.1441 150.36 14.0841 150.841 14.0841C151.111 14.0841 151.351 14.0841 151.622 14.1141C151.892 14.1141 152.042 14.1441 152.132 14.1741V14.024C152.132 13.8438 152.102 13.6937 152.012 13.5435C151.922 13.4234 151.832 13.3033 151.712 13.2132C151.592 13.1231 151.442 13.063 151.261 13.033C151.111 13.003 150.931 12.9729 150.751 12.9729C150.27 12.9729 149.85 13.033 149.52 13.1531C149.189 13.2732 148.919 13.4234 148.709 13.5735L147.808 12.2222C147.958 12.1021 148.138 11.982 148.318 11.8919C148.529 11.7717 148.739 11.6817 149.009 11.5916C149.279 11.5015 149.58 11.4114 149.91 11.3814C150.24 11.3513 150.631 11.2913 151.051 11.2913C152.162 11.2913 152.973 11.5916 153.484 12.1922C153.994 12.7928 154.264 13.5735 154.264 14.5645V18.7687H152.192L152.162 18.078ZM152.162 15.5555C152.102 15.5555 152.012 15.5255 151.862 15.5255C151.712 15.4955 151.562 15.4955 151.381 15.4955C150.751 15.4955 150.33 15.5856 150.06 15.7657C149.79 15.9459 149.67 16.1862 149.67 16.5165C149.67 17.1171 150.03 17.4174 150.751 17.4174C150.931 17.4174 151.111 17.3874 151.261 17.3273C151.442 17.2672 151.592 17.1771 151.712 17.0871C151.832 16.997 151.952 16.8468 152.042 16.6967C152.132 16.5465 152.162 16.3663 152.162 16.1561V15.5555Z" fill="white"/>
<path d="M155.766 8.46838H157.988V18.7687H155.766V8.46838Z" fill="white"/>
<path d="M117.087 29.5495C117.207 29.6996 117.387 29.8498 117.568 29.9999C117.748 30.1501 117.958 30.3003 118.168 30.4204C118.378 30.5405 118.619 30.6306 118.889 30.7207C119.159 30.8108 119.43 30.8408 119.73 30.8408C119.91 30.8408 120.09 30.8108 120.24 30.7507C120.421 30.6906 120.571 30.6306 120.721 30.5405C120.871 30.4504 120.991 30.3303 121.081 30.1801C121.171 30.03 121.201 29.8798 121.201 29.6996C121.201 29.3093 121.021 29.009 120.631 28.7987C120.27 28.5885 119.67 28.3783 118.859 28.1681C118.469 28.078 118.108 27.9279 117.778 27.7777C117.448 27.5975 117.147 27.3873 116.907 27.1471C116.667 26.9069 116.487 26.6066 116.336 26.3063C116.216 25.9759 116.126 25.6456 116.126 25.2552C116.126 24.8348 116.216 24.4144 116.366 24.024C116.517 23.6336 116.757 23.3033 117.057 23.003C117.357 22.7027 117.748 22.4924 118.228 22.3123C118.709 22.1321 119.249 22.072 119.88 22.072C120.391 22.072 120.871 22.1321 121.261 22.2222C121.652 22.3423 122.012 22.4624 122.282 22.6126C122.553 22.7627 122.793 22.9129 122.973 23.063C123.153 23.2132 123.303 23.3633 123.394 23.4534L122.042 24.9249C121.922 24.8348 121.802 24.7447 121.652 24.6246C121.502 24.5045 121.321 24.4144 121.141 24.3243C120.961 24.2342 120.751 24.1441 120.541 24.084C120.33 24.024 120.09 23.9939 119.85 23.9939C119.7 23.9939 119.52 24.024 119.369 24.084C119.219 24.1441 119.069 24.2042 118.949 24.2942C118.829 24.3843 118.709 24.4744 118.649 24.5945C118.559 24.7147 118.529 24.8348 118.529 24.9849C118.529 25.3453 118.709 25.6156 119.099 25.8258C119.46 26.036 119.97 26.2162 120.631 26.3663C121.021 26.4564 121.381 26.5765 121.742 26.7567C122.102 26.9069 122.433 27.1171 122.733 27.3873C123.033 27.6576 123.243 27.9579 123.424 28.3483C123.604 28.7387 123.694 29.1891 123.694 29.6996C123.694 30.1501 123.604 30.6005 123.394 30.9909C123.183 31.3813 122.913 31.7117 122.553 32.012C122.192 32.3123 121.772 32.5225 121.291 32.6726C120.811 32.8228 120.3 32.9129 119.73 32.9129C119.219 32.9129 118.739 32.8528 118.318 32.7627C117.898 32.6726 117.508 32.5225 117.177 32.3723C116.847 32.2222 116.547 32.042 116.246 31.8318C115.976 31.6216 115.736 31.4114 115.556 31.2012L117.087 29.5495Z" fill="white"/>
<path d="M131.832 31.8317C131.742 31.8918 131.622 31.9819 131.472 32.0719C131.321 32.1921 131.081 32.3122 130.841 32.4323C130.571 32.5524 130.27 32.6425 129.91 32.7326C129.55 32.8227 129.129 32.8527 128.679 32.8527C128.048 32.8527 127.508 32.7626 127.027 32.5524C126.547 32.3722 126.126 32.102 125.766 31.7716C125.436 31.4413 125.165 31.0209 124.985 30.5404C124.805 30.0599 124.715 29.5494 124.715 28.9488C124.715 28.4383 124.805 27.9578 124.955 27.4774C125.135 26.9969 125.376 26.6065 125.676 26.2461C126.006 25.8858 126.397 25.6155 126.847 25.4053C127.297 25.1951 127.838 25.075 128.409 25.075C129.009 25.075 129.52 25.165 129.94 25.3753C130.391 25.5855 130.751 25.8557 131.051 26.2461C131.351 26.6065 131.592 27.0569 131.742 27.5674C131.892 28.078 131.982 28.6485 131.982 29.2491V29.6095H126.817C126.817 29.9999 126.997 30.3302 127.327 30.6305C127.658 30.9308 128.108 31.081 128.709 31.081C129.279 31.081 129.76 30.9909 130.12 30.8407C130.481 30.6605 130.751 30.5104 130.901 30.3903L131.832 31.8317ZM129.91 28.2281C129.91 28.078 129.88 27.9278 129.82 27.7476C129.76 27.5975 129.67 27.4473 129.55 27.2972C129.43 27.1771 129.279 27.0569 129.099 26.9668C128.919 26.8768 128.679 26.8467 128.439 26.8467C128.198 26.8467 127.958 26.8768 127.748 26.9668C127.538 27.0569 127.388 27.1771 127.267 27.2972C127.147 27.4173 127.027 27.5674 126.967 27.7476C126.907 27.8978 126.877 28.078 126.877 28.2281H129.91Z" fill="white"/>
<path d="M133.123 25.3752H135.255L135.345 26.2761C135.525 26.0359 135.796 25.7957 136.096 25.5554C136.396 25.3152 136.847 25.2251 137.357 25.2251C137.567 25.2251 137.718 25.2251 137.868 25.2551C138.018 25.2852 138.138 25.3152 138.288 25.3752L137.928 27.3272C137.688 27.2671 137.447 27.2071 137.117 27.2071C136.607 27.2071 136.156 27.3572 135.856 27.6876C135.525 27.9879 135.375 28.4383 135.375 29.0089V32.5825H133.153V25.3752H133.123Z" fill="white"/>
<path d="M138.679 25.3752H141.141L142.853 30.12L144.505 25.3752H146.937L143.844 32.6125H141.742L138.679 25.3752Z" fill="white"/>
<path d="M147.628 22.3123H150V24.3243H147.628V22.3123ZM147.718 25.3753H149.94V32.6126H147.718V25.3753Z" fill="white"/>
<path d="M157.898 31.6515C157.598 31.9819 157.207 32.2521 156.727 32.4924C156.246 32.7326 155.646 32.8527 154.985 32.8527C154.384 32.8527 153.874 32.7626 153.393 32.5524C152.913 32.3722 152.492 32.102 152.162 31.7416C151.832 31.4113 151.562 30.9909 151.381 30.5104C151.201 30.0299 151.081 29.5194 151.081 28.9488C151.081 28.4083 151.171 27.8978 151.381 27.4473C151.592 26.9969 151.862 26.5765 152.192 26.2161C152.522 25.8557 152.943 25.5855 153.423 25.4053C153.904 25.1951 154.414 25.105 154.985 25.105C155.646 25.105 156.216 25.2251 156.697 25.4353C157.177 25.6455 157.598 25.9458 157.928 26.3062L156.577 27.7476C156.426 27.5674 156.216 27.3873 155.976 27.2671C155.736 27.117 155.435 27.0569 155.045 27.0569C154.775 27.0569 154.535 27.117 154.324 27.2071C154.114 27.3272 153.934 27.4473 153.784 27.6275C153.634 27.8077 153.513 28.0179 153.453 28.2281C153.363 28.4683 153.333 28.7086 153.333 28.9488C153.333 29.1891 153.363 29.4293 153.453 29.6395C153.544 29.8798 153.634 30.09 153.784 30.2701C153.934 30.4503 154.114 30.6005 154.324 30.7206C154.535 30.8407 154.775 30.9008 155.045 30.9008C155.435 30.9008 155.736 30.8407 156.006 30.6906C156.276 30.5404 156.456 30.3903 156.637 30.2101L157.898 31.6515Z" fill="white"/>
<path d="M165.375 31.8317C165.285 31.8918 165.165 31.9819 165.015 32.0719C164.865 32.1921 164.625 32.3122 164.384 32.4323C164.114 32.5524 163.814 32.6425 163.453 32.7326C163.093 32.8227 162.673 32.8527 162.222 32.8527C161.592 32.8527 161.051 32.7626 160.571 32.5524C160.09 32.3722 159.67 32.102 159.309 31.7716C158.979 31.4413 158.709 31.0209 158.529 30.5404C158.348 30.0599 158.258 29.5494 158.258 28.9488C158.258 28.4383 158.348 27.9578 158.499 27.4774C158.679 26.9969 158.919 26.6065 159.219 26.2461C159.55 25.8858 159.94 25.6155 160.39 25.4053C160.841 25.1951 161.381 25.075 161.952 25.075C162.523 25.075 163.063 25.165 163.484 25.3753C163.934 25.5855 164.294 25.8557 164.595 26.2461C164.895 26.6065 165.135 27.0569 165.285 27.5674C165.435 28.078 165.526 28.6485 165.526 29.2491V29.6095H160.36C160.36 29.9999 160.541 30.3302 160.871 30.6305C161.201 30.9308 161.652 31.081 162.252 31.081C162.823 31.081 163.303 30.9909 163.664 30.8407C164.024 30.6605 164.294 30.5104 164.444 30.3903L165.375 31.8317ZM163.423 28.2281C163.423 28.078 163.393 27.9278 163.333 27.7476C163.273 27.5975 163.183 27.4473 163.063 27.2972C162.943 27.1771 162.793 27.0569 162.613 26.9668C162.432 26.8768 162.192 26.8467 161.952 26.8467C161.682 26.8467 161.472 26.8768 161.261 26.9668C161.051 27.0569 160.901 27.1771 160.781 27.2972C160.661 27.4173 160.541 27.5674 160.481 27.7476C160.42 27.8978 160.39 28.078 160.39 28.2281H163.423Z" fill="white"/>
<path d="M167.297 30.3903C167.538 30.6005 167.838 30.7807 168.228 30.9308C168.619 31.081 168.979 31.141 169.339 31.141C169.67 31.141 169.94 31.111 170.15 31.0209C170.36 30.9308 170.481 30.7807 170.481 30.5404C170.481 30.4503 170.451 30.3602 170.421 30.3002C170.36 30.2101 170.3 30.15 170.18 30.09C170.06 30.0299 169.88 29.9398 169.67 29.8798C169.46 29.8197 169.159 29.7296 168.829 29.6395C168.559 29.5795 168.288 29.4593 168.018 29.3392C167.748 29.2191 167.508 29.0689 167.297 28.8888C167.087 28.7086 166.907 28.4984 166.787 28.2581C166.667 28.0179 166.607 27.7176 166.607 27.3873C166.607 27.0569 166.697 26.7566 166.847 26.4563C166.997 26.1861 167.207 25.9458 167.478 25.7356C167.748 25.5254 168.078 25.3752 168.439 25.2852C168.799 25.165 169.219 25.135 169.64 25.135C170.27 25.135 170.811 25.1951 171.261 25.3452C171.712 25.4954 172.162 25.6756 172.553 25.9458L171.622 27.4173C171.381 27.2671 171.111 27.117 170.811 26.9969C170.511 26.8768 170.18 26.8167 169.79 26.8167C169.46 26.8167 169.189 26.8768 169.039 26.9668C168.889 27.0569 168.799 27.2071 168.799 27.3572C168.799 27.5975 168.949 27.7777 169.279 27.8677C169.61 27.9879 170.03 28.108 170.571 28.2581C171.321 28.4683 171.862 28.7386 172.192 29.099C172.523 29.4593 172.703 29.9398 172.703 30.5404C172.703 30.9308 172.613 31.2912 172.433 31.5614C172.252 31.8617 172.012 32.102 171.712 32.2822C171.411 32.4623 171.051 32.6125 170.691 32.7026C170.3 32.7927 169.91 32.8527 169.52 32.8527C168.859 32.8527 168.258 32.7626 167.688 32.5825C167.117 32.4023 166.637 32.132 166.276 31.7716L167.297 30.3903Z" fill="white"/>
<path d="M30.6909 10.6907C35.1654 13.1832 27.6879 28.5585 22.1023 32.1321C16.817 35.7958 6.45666 34.8348 1.71191 27.2372C1.71191 27.2372 3.36357 31.2913 6.54675 34.3844C11.5017 39.1591 18.9191 41.021 25.9462 38.7988C29.8501 37.5676 33.1233 35.2252 35.4957 32.2222C39.9702 23.003 35.7359 13.6636 30.6909 10.6907Z" fill="url(#paint0_linear_830_2273)"/>
<path d="M14.1442 1.20118C3.75385 4.44442 -2.01192 15.5255 1.26136 25.9159C1.41151 26.3663 1.56166 26.8168 1.74184 27.2372C6.45655 34.8348 16.8169 35.7958 22.1022 32.1321C20.9611 32.8829 19.88 33.0931 19.0391 32.6126C14.8049 30.2402 11.3514 24.2042 11.3514 24.2042C11.3514 24.2042 7.8079 18.7687 7.56766 14.7447C7.08718 7.41739 12.6127 1.14112 23.6638 0.630608C23.6638 0.630608 23.6638 0.630608 23.6938 0.630608C20.6007 0.030007 17.3274 0.180157 14.1442 1.20118Z" fill="url(#paint1_linear_830_2273)"/>
<path d="M38.8287 14.0841C36.5765 6.90689 30.5705 1.92191 23.6636 0.630615C12.6426 1.14113 7.11703 7.4174 7.56748 14.7447C7.50742 13.8438 7.62754 13.003 7.9879 12.3123C9.63955 9.21921 22.9429 6.39638 30.6606 10.6907C35.7056 13.6637 39.9699 23.003 35.4654 32.2222C37.5675 29.5495 38.9789 26.3664 39.4894 22.973C39.9699 20.0901 39.7597 17.057 38.8287 14.0841Z" fill="url(#paint2_linear_830_2273)"/>
<path d="M48.5588 8.49841H57.5078C58.8892 8.49841 60.1204 8.70862 61.2015 9.09901C62.2525 9.4894 63.1534 10.0299 63.8441 10.7206C64.5648 11.4113 65.0754 12.2221 65.4357 13.123C65.7961 14.054 65.9462 15.0149 65.9462 16.066C65.9462 17.6275 65.6159 19.0089 64.9252 20.1801C64.2345 21.3513 63.2736 22.2822 62.0123 22.9729L67.3576 32.6426H61.3516L56.8772 23.7837H53.8441V32.6426H48.5288V8.49841H48.5588ZM57.2375 19.3693C58.2585 19.3693 59.0393 19.069 59.6099 18.4684C60.1805 17.8678 60.4808 17.117 60.4808 16.1861C60.4808 15.1951 60.1805 14.4143 59.6099 13.8438C59.0393 13.2732 58.2285 12.9729 57.2375 12.9729H53.8742V19.3693H57.2375Z" fill="white"/>
<path d="M87.3574 26.6366C87.2073 26.2161 87.1172 25.9759 86.9971 25.5255C85.7959 26.5164 85.1052 26.9369 84.0541 27.4173C83.0031 27.9279 81.7418 28.2282 80.3604 28.2282C79.2793 28.2282 78.2883 28.0179 77.4475 27.6276C76.5766 27.2372 75.8559 26.6666 75.2553 25.9759C74.6547 25.2852 74.2043 24.4744 73.8739 23.5435C73.5436 22.6125 73.3934 21.5315 73.3934 20.4804C73.3934 19.4294 73.5436 18.4684 73.8739 17.5375C74.2043 16.6065 74.6547 15.7957 75.2553 15.105C75.8559 14.4143 76.5766 13.8438 77.4475 13.4534C78.3184 13.063 79.2793 12.8528 80.3604 12.8528C81.7418 12.8528 83.0031 13.1531 84.0541 13.6636C85.1052 14.1741 85.8559 14.6846 87.0571 15.6155C87.1772 15.1951 87.2673 14.9849 87.4175 14.5945C87.898 13.3333 88.5286 12.1921 89.3094 11.1411C86.7568 9.069 84.0241 7.8678 80.1202 7.8678C78.2583 7.8678 76.5766 8.19813 75.0451 8.85879C73.5136 9.51945 72.1922 10.4204 71.1112 11.5615C70.0301 12.7026 69.1592 14.054 68.5586 15.6155C67.958 17.1771 67.6577 18.8288 67.6577 20.6306C67.6577 22.4324 67.958 23.9038 68.5586 25.4654C69.1592 27.027 70.0001 28.3783 71.1112 29.5195C72.1922 30.6606 73.5136 31.5615 75.0451 32.2222C76.5766 32.8828 78.2583 33.2131 80.1202 33.2131C83.934 33.2131 86.6367 32.072 89.1592 30.06C88.4385 29.039 87.8379 27.8978 87.3574 26.6366Z" fill="white"/>
<path d="M102.463 19.3393H111.742V29.7897C110.481 30.8708 109.039 31.7116 107.358 32.3122C105.676 32.9128 103.784 33.2131 101.622 33.2131C99.6399 33.2131 97.8982 32.9128 96.3366 32.2822C94.775 31.6816 93.4537 30.8107 92.3726 29.6996C91.2916 28.5885 90.4507 27.2672 89.9102 25.7357C89.3396 24.2041 89.0693 22.4924 89.0693 20.6306C89.0693 18.8288 89.3696 17.1471 89.9702 15.6155C90.5708 14.084 91.4117 12.7327 92.5228 11.5915C93.6339 10.4504 94.9552 9.54948 96.4567 8.88882C97.9582 8.22816 99.6699 7.89783 101.502 7.89783C103.694 7.89783 105.616 8.28822 107.268 9.09903C108.919 9.90984 110.271 11.021 111.352 12.4924L107.658 16.0059C106.877 15.105 106.036 14.3543 105.105 13.7537C104.174 13.1831 103.033 12.8828 101.682 12.8828C100.571 12.8828 99.5798 13.093 98.709 13.4834C97.8381 13.9038 97.1174 14.4444 96.5168 15.1351C95.9162 15.8258 95.4657 16.6666 95.1354 17.5975C94.8351 18.5285 94.6549 19.5495 94.6549 20.6005C94.6549 21.7717 94.8351 22.7927 95.1955 23.7537C95.5558 24.6846 96.0663 25.4954 96.697 26.1561C97.3576 26.8167 98.1084 27.3273 98.9792 27.6876C99.8501 28.048 100.811 28.2282 101.862 28.2282C102.823 28.2282 103.694 28.108 104.505 27.8978C105.286 27.6576 106.006 27.2972 106.637 26.7867V23.7537H102.373V19.3393H102.463Z" fill="white"/>
</g>
<defs>
<linearGradient id="paint0_linear_830_2273" x1="37.5251" y1="19.6086" x2="7.24561" y2="37.0907" gradientUnits="userSpaceOnUse">
<stop offset="0.0163661" stop-color="#1B4B7D"/>
<stop offset="0.1595" stop-color="#0064B0"/>
<stop offset="0.3552" stop-color="#1F7CC1"/>
<stop offset="0.772" stop-color="#63C6F1"/>
</linearGradient>
<linearGradient id="paint1_linear_830_2273" x1="22.9506" y1="31.6706" x2="7.31147" y2="4.58325" gradientUnits="userSpaceOnUse">
<stop stop-color="#1B4B7D"/>
<stop offset="0.2471" stop-color="#0064B0"/>
<stop offset="0.8549" stop-color="#63C6F1"/>
<stop offset="0.9196" stop-color="#9FD8F6"/>
<stop offset="0.9715" stop-color="#C2E7FA"/>
<stop offset="1" stop-color="#CFEDFC"/>
</linearGradient>
<linearGradient id="paint2_linear_830_2273" x1="10.8162" y1="4.95546" x2="41.315" y2="22.5637" gradientUnits="userSpaceOnUse">
<stop stop-color="#1B4B7D"/>
<stop offset="0.3768" stop-color="#0064B0"/>
<stop offset="1" stop-color="#63C6F1"/>
</linearGradient>
<clipPath id="clip0_830_2273">
<rect width="172.973" height="40" fill="white"/>
</clipPath>
</defs>
</svg>
